<svg clip-rule="evenodd" fill-rule="evenodd" stroke-linejoin="round" stroke-miterlimit="2" viewBox="0 0 1762 1966" xmlns="http://www.w3.org/2000/svg"><path d="m0 1956.93c34.031-57.988 61.139-100.981 101.877-209.41 51.781-137.819 202.431-860.841 225.55-959.201 114.276-486.169 132.407-774.437 606.812-788.309 410.084-1.527 598.837 242.897 608.107 560.556 5.318 182.21-69.087 354.514-213.185 420.442 195.235 32.508 416.768 169.459 431.668 481.62 13.386 280.442-172.335 510.215-517.967 502.391-202.261-4.578-341.426-8.584-441.287-8.056 34.016-61.21 65.329-155.536 65.329-340.09v-503.232c0-27.011-21.897-48.908-48.908-48.908h-330.456c-58.927 0-90.413 17.245-104.716 82.571-42.017 191.913-94.927 396.566-124.23 598.883-7.901 88.368 9.908 159.306 45.674 211.254-109.164 1.196-211.534-.822-304.268-.511zm1039.71-890.121c-19.934 1.193-35.489 17.708-35.489 37.677-.061 138.842-.061 642.5-.061 642.5 1.983 99.613 100.215 127.696 254.129 121.802 222.585-8.524 343.138-117.83 349.859-385.703 6.558-261.38-172.912-439.779-568.438-416.276zm4.669-943.096c-10.371-.667-20.556 2.988-28.137 10.097s-11.882 17.038-11.882 27.431c-.2 138.458-.2 611.839-.2 761.468 0 12.126 4.817 23.755 13.391 32.33 8.575 8.574 20.204 13.391 32.331 13.391h90.867c307.607-11.676 385.104-812.91-96.37-844.717zm-225.712-.827c-177.049 5.77-250.781 213.145-310.731 486.91-28.673 130.938-51.891 243.383-63.689 306.772-1.675 12.916 2.286 25.929 10.873 35.721 8.587 9.793 20.971 15.42 33.995 15.448 83.582.177 244.827.52 326.988.693 13.475.029 26.407-5.308 35.94-14.833 9.532-9.524 14.881-22.451 14.864-35.926-.045-151.021-.497-596.086-4.335-754.344-.452-11.187-5.334-21.735-13.57-29.321-8.235-7.586-19.148-11.586-30.335-11.12z" fill="#490220"/></svg>